<svg width="125" height="120" viewBox="0 0 125 120" fill="none" xmlns="http://www.w3.org/2000/svg">
<path d="M60.8102 119.083C50.4777 118.851 17.4989 118.112 4.6676 93.181C-5.66666 73.1012 2.70841 48.4521 14.7259 34.6059C22.275 25.9082 31.3388 21.3525 31.3389 21.3525C45.3209 14.3248 53.8355 18.4095 63.9283 9.76517C69.6473 4.86696 71.9897 -0.792355 74.6815 0.0920376C77.1817 0.913471 77.929 6.70521 77.6399 10.3476C77.4407 12.8565 76.7074 14.8793 76.0621 16.2643C78.201 14.7413 81.3782 12.3252 84.9371 8.96706C88.429 5.67212 89.7894 3.82833 91.2482 4.23371C93.5565 4.87518 94.004 10.5628 93.8334 13.6572C93.6603 16.7977 92.7396 19.2747 92.0371 20.8004C96.7166 23.0199 103.423 26.9338 109.516 33.7021C122.564 48.1952 130.801 73.6547 120.043 93.9698C106.205 120.1 70.6859 119.304 60.8102 119.083Z" fill="#131212"/>
<path d="M20.4454 95.9421C32.4486 108.403 49.5029 108.16 62.651 107.973C75.9375 107.783 91.5746 107.561 102.687 95.7448C105.156 93.1196 115.456 81.3585 112.351 65.7671C112.028 64.1454 108.663 48.6475 93.8442 42.875C83.0454 38.6683 70.487 41.3103 61.6649 49.5948C60.7809 48.7575 48.8639 37.8511 33.1021 41.6406C20.408 44.6926 12.1358 55.6142 10.1899 66.5559C7.37657 82.3749 18.545 93.9692 20.4454 95.9421Z" fill="#CBC2BA" stroke="#131212" stroke-width="8" stroke-linecap="round" stroke-linejoin="round"/>
<path d="M49.9964 75.8102C50.1397 75.4885 51.9933 71.1537 50.3289 66.4752C48.0322 60.0196 40.7629 57.7602 39.8187 57.482C31.0519 54.8993 21.9051 60.0101 10.1898 66.556C7.37658 82.3749 18.545 93.9692 20.4454 95.9421C24.2851 92.7206 27.6946 90.5195 32.2788 87.7902C45.5976 79.8606 48.2535 79.7247 49.9964 75.8102Z" fill="#131212"/>
<path d="M80.7091 58.8271C79.1655 59.6246 73.8242 62.7078 72.7093 68.331C72.0753 71.529 73.0748 74.2034 73.3775 74.9461C74.9603 78.8291 77.909 79.9834 91.051 87.1329C96.9291 90.3307 99.855 92.0124 103.346 95.0233C106.588 91.3825 115.23 80.2242 112.351 65.7672C109.188 63.6518 92.7064 52.6283 80.7091 58.8271Z" fill="#131212"/>
<path d="M80.4011 71.8809C79.952 70.8218 85.0135 65.8092 90.509 66.5611C95.728 67.2752 99.2335 72.9004 98.5455 73.8531C97.9996 74.6091 95.0808 72.0527 89.2761 71.4865C83.8288 70.9551 80.7285 72.6531 80.4011 71.8809Z" fill="#CBC2BA"/>
<path d="M44.5064 71.4865C44.881 70.4877 39.5851 65.7658 34.0536 66.7532C28.808 67.6896 25.4863 73.3794 26.1648 74.2477C26.7224 74.9613 29.7085 72.0673 35.6314 71.2893C41.0093 70.583 44.2304 72.2225 44.5064 71.4865Z" fill="#CBC2BA"/>
<path d="M61.2704 69.5142C63.9149 69.4635 68.4321 70.2867 68.9621 72.6698C69.4909 75.0474 65.9269 78.4193 62.2566 78.7837C57.8653 79.2196 53.3459 75.348 53.776 72.867C54.1609 70.6473 58.5031 69.5674 61.2704 69.5142Z" fill="#131212"/>
<path d="M52.757 82.9911C53.1188 82.3168 56.2048 84.4564 61.8292 84.5031C67.3089 84.5487 70.3635 82.5675 70.7371 83.2869C71.201 84.1804 67.2405 88.6824 62.2565 88.842C56.7773 89.0175 52.2834 83.8737 52.757 82.9911Z" fill="#131212"/>
</svg>
